<svg xmlns="http://www.w3.org/2000/svg" xmlns:xlink="http://www.w3.org/1999/xlink" version="1.1" id="Calque_1" x="0px" y="0px" width="100px" height="100px" viewBox="0 0 100 100" enable-background="new 0 0 100 100" xml:space="preserve">
<path d="M47.486,77.251L47.486,77.251L47.486,77.251z" fill="#444444"/>
<polygon points="63.102,35.01 63.271,32.125 60.773,30.336 58.803,32.145 "/>
<path d="M40.319,75.061L40.319,75.061L40.319,75.061z"/>
<polygon points="32.22,79.689 29.591,78.176 31.104,85.277 34.744,84.857 "/>
<polygon points="55.798,90.676 47.262,77.548 40.36,75.439 32.948,79.584 35.531,84.873 54.171,92.303 "/>
<polygon points="71.775,69.857 67.119,55.316 47.924,77.282 56.409,90.331 65.439,88.423 71.775,76.585 "/>
<polygon points="65.665,90.826 65.387,89.148 56.421,91.043 54.716,92.749 56.488,95.167 "/>
<polygon points="54.033,93.002 35.228,85.506 31.495,85.936 33.55,88.333 50.142,95.501 55.782,95.501 55.844,95.473 "/>
<polygon points="66.036,88.792 66.323,90.516 71.775,87.936 71.775,78.068 "/>
<polygon points="32.49,79.038 39.958,74.861 37.847,36.213 26.382,63.115 29.395,77.256 "/>
<polygon points="58.087,31.852 60.083,30.021 50.805,27.277 39.788,31.658 38.891,33.763 "/>
<polygon points="63.766,35.617 67.602,54.527 71.775,67.561 71.775,49.975 66.068,34.126 63.945,32.606 "/>
<path d="M63.1,35.851l-4.951-3.302l-19.57,1.948l-0.11,0.257l2.188,40.043l6.716,2.053l19.515-22.33L63.1,35.851z M50.46,39.529  c-0.829,0-1.5-0.672-1.5-1.5c0-0.828,0.671-1.5,1.5-1.5s1.5,0.672,1.5,1.5C51.96,38.857,51.289,39.529,50.46,39.529z"/>
<path d="M29.12,18.503c-0.111,0-0.223-0.028-0.325-0.087c-0.311-0.18-0.417-0.577-0.237-0.888  c4.503-7.782,12.879-12.616,21.86-12.616c8.979,0,17.355,4.833,21.859,12.614c0.18,0.311,0.074,0.708-0.237,0.888  c-0.312,0.18-0.708,0.073-0.888-0.237C66.88,10.796,58.936,6.211,50.418,6.211c-8.519,0-16.464,4.585-20.735,11.967  C29.562,18.387,29.344,18.503,29.12,18.503z"/>
<path d="M35.068,21.122c-0.11,0-0.223-0.028-0.325-0.087c-0.311-0.18-0.417-0.577-0.237-0.888c3.264-5.643,9.339-9.148,15.853-9.148  c6.512,0,12.584,3.505,15.851,9.146c0.181,0.311,0.074,0.708-0.237,0.888c-0.31,0.18-0.707,0.074-0.888-0.237  c-3.034-5.242-8.677-8.498-14.726-8.498c-6.051,0-11.694,3.257-14.728,8.5C35.511,21.006,35.292,21.122,35.068,21.122z"/>
<path d="M41.975,23.558c-0.111,0-0.223-0.028-0.325-0.087c-0.311-0.18-0.417-0.577-0.237-0.888c1.855-3.206,5.306-5.197,9.005-5.197  s7.148,1.991,9.004,5.195c0.18,0.311,0.074,0.708-0.236,0.888c-0.312,0.18-0.709,0.074-0.889-0.237  c-1.624-2.805-4.643-4.547-7.879-4.547c-3.236,0-6.256,1.743-7.88,4.548C42.417,23.442,42.199,23.558,41.975,23.558z"/>
</svg>
